<svg xmlns="http://www.w3.org/2000/svg" viewBox="0 0 957.6125000000001 1732.65" width="957.6125000000001" height="1732.65" style="--bg:#1a1b26;--fg:#a9b1d6;--line:#3d59a1;--accent:#7aa2f7;--muted:#565f89;background:var(--bg)">
<style>
  @import url('https://fonts.googleapis.com/css2?family=Inter:wght@400;500;600;700&amp;display=swap');
  text { font-family: 'Inter', system-ui, sans-serif; }
  svg {
    /* Derived from --bg and --fg (overridable via --line, --accent, etc.) */
    --_text:          var(--fg);
    --_text-sec:      var(--muted, color-mix(in srgb, var(--fg) 60%, var(--bg)));
    --_text-muted:    var(--muted, color-mix(in srgb, var(--fg) 40%, var(--bg)));
    --_text-faint:    color-mix(in srgb, var(--fg) 25%, var(--bg));
    --_line:          var(--line, color-mix(in srgb, var(--fg) 30%, var(--bg)));
    --_arrow:         var(--accent, color-mix(in srgb, var(--fg) 50%, var(--bg)));
    --_node-fill:     var(--surface, color-mix(in srgb, var(--fg) 3%, var(--bg)));
    --_node-stroke:   var(--border, color-mix(in srgb, var(--fg) 20%, var(--bg)));
    --_group-fill:    var(--bg);
    --_group-hdr:     color-mix(in srgb, var(--fg) 5%, var(--bg));
    --_inner-stroke:  color-mix(in srgb, var(--fg) 12%, var(--bg));
    --_key-badge:     color-mix(in srgb, var(--fg) 10%, var(--bg));
  }
</style>
<defs>
  <marker id="arrowhead" markerWidth="8" markerHeight="4.8" refX="8" refY="2.4" orient="auto">
    <polygon points="0 0, 8 2.4, 0 4.8" fill="var(--_arrow)" />
  </marker>
  <marker id="arrowhead-start" markerWidth="8" markerHeight="4.8" refX="0" refY="2.4" orient="auto-start-reverse">
    <polygon points="8 0, 0 2.4, 8 4.8" fill="var(--_arrow)" />
  </marker>
</defs>
<polyline points="201.61249999999995,76 201.61249999999995,116" fill="none" stroke="var(--_line)" stroke-width="0.75" marker-end="url(#arrowhead)" />
<polyline points="201.61249999999995,152 201.61249999999995,191.99999999999997" fill="none" stroke="var(--_line)" stroke-width="0.75" marker-end="url(#arrowhead)" />
<polyline points="174.10171846267008,342.03921846267014 174.10171846267008,398.05 148.95000000000005,398.05 148.95000000000005,426.55" fill="none" stroke="var(--_line)" stroke-width="0.75" marker-end="url(#arrowhead)" />
<polyline points="246.82509479899994,324.337405201 246.82509479899994,398.05 323.33000000000004,398.05 323.33000000000004,689.55 289.3775000000001,689.55" fill="none" stroke="var(--_line)" stroke-width="0.75" marker-end="url(#arrowhead)" />
<polyline points="148.95000000000005,462.55 148.95000000000005,502.54999999999995" fill="none" stroke="var(--_line)" stroke-width="0.75" marker-end="url(#arrowhead)" />
<polyline points="148.95000000000005,538.55 148.95000000000005,689.55 228.7775000000001,689.55" fill="none" stroke="var(--_line)" stroke-width="0.75" marker-end="url(#arrowhead)" />
<polyline points="148.95000000000005,538.55 148.95000000000005,567.05 263.8800000000001,567.05 263.8800000000001,595.55" fill="none" stroke="var(--_line)" stroke-width="0.75" marker-end="url(#arrowhead)" />
<polyline points="263.8800000000001,631.55 263.8800000000001,689.55 289.3775000000001,689.55" fill="none" stroke="var(--_line)" stroke-width="0.75" marker-end="url(#arrowhead)" />
<polyline points="259.0775000000001,707.55 259.0775000000001,747.55" fill="none" stroke="var(--_line)" stroke-width="0.75" marker-end="url(#arrowhead)" />
<polyline points="259.0775000000001,783.55 259.0775000000001,823.55" fill="none" stroke="var(--_line)" stroke-width="0.75" marker-end="url(#arrowhead)" />
<polyline points="259.0775000000001,859.55 259.0775000000001,879.55 169.73750000000007,879.55 169.73750000000007,899.55" fill="none" stroke="var(--_line)" stroke-width="0.75" marker-end="url(#arrowhead)" />
<polyline points="259.0775000000001,859.55 259.0775000000001,879.55 365.1625,879.55 365.1625,899.55" fill="none" stroke="var(--_line)" stroke-width="0.75" marker-end="url(#arrowhead)" />
<polyline points="169.73750000000007,935.55 169.73750000000007,1003.3720479879086 231.25545201209155,1003.3720479879086" fill="none" stroke="var(--_line)" stroke-width="0.75" marker-end="url(#arrowhead)" />
<polyline points="365.1625,935.55 365.1625,1005.4352265929872 288.9627265929873,1005.4352265929872" fill="none" stroke="var(--_line)" stroke-width="0.75" marker-end="url(#arrowhead)" />
<polyline points="235.73799770537343,1051.1104977053733 235.73799770537343,1102.95 189.4000000000001,1102.95 189.4000000000001,1131.45" fill="none" stroke="var(--_line)" stroke-width="0.75" marker-end="url(#arrowhead)" />
<polyline points="285.07693801426643,1048.4505619857337 285.07693801426643,1102.95 345.5000000000001,1102.95 345.5000000000001,1131.45" fill="none" stroke="var(--_line)" stroke-width="0.75" marker-end="url(#arrowhead)" />
<polyline points="189.4000000000001,1167.45 189.4000000000001,1207.45" fill="none" stroke="var(--_line)" stroke-width="0.75" marker-end="url(#arrowhead)" />
<polyline points="189.4000000000001,1243.45 189.4000000000001,1271.95 148.95000000000005,1271.95 148.95000000000005,1300.45" fill="none" stroke="var(--_line)" stroke-width="0.75" marker-end="url(#arrowhead)" />
<polyline points="148.95000000000005,1336.45 148.95000000000005,1393.45" fill="none" stroke="var(--_line)" stroke-width="0.75" marker-end="url(#arrowhead)" />
<polyline points="148.95000000000005,1429.45 148.95000000000005,1504.6855236957388 171.16447630426129,1504.6855236957388" fill="none" stroke="var(--_line)" stroke-width="0.75" marker-end="url(#arrowhead)" />
<polyline points="213.82888057707737,1510.8788805770773 213.82888057707737,1457.95 254.0200000000002,1457.95 254.0200000000002,1225.45 237.5750000000001,1225.45" fill="none" stroke="var(--_line)" stroke-width="0.75" marker-end="url(#arrowhead)" />
<polyline points="189.4000000000001,1599.6499999999999 189.4000000000001,1674.65 450.1150000000002,1674.65" fill="none" stroke="var(--_line)" stroke-width="0.75" marker-end="url(#arrowhead)" />
<polyline points="345.5000000000001,1167.45 345.5000000000001,1674.65 450.1150000000002,1674.65" fill="none" stroke="var(--_line)" stroke-width="0.75" marker-end="url(#arrowhead)" />
<polyline points="487.56500000000017,1656.65 487.56500000000017,1628.15 940.2750000000001,1628.15 940.2750000000001,1025 580.1125000000001,1025" fill="none" stroke="var(--_line)" stroke-width="0.75" marker-end="url(#arrowhead)" />
<polyline points="541.8125000000001,1043 541.8125000000001,1102.95 430.10000000000014,1102.95 430.10000000000014,1131.45" fill="none" stroke="var(--_line)" stroke-width="0.75" marker-end="url(#arrowhead)" />
<polyline points="430.10000000000014,1167.45 430.10000000000014,1674.65 450.1150000000002,1674.65" fill="none" stroke="var(--_line)" stroke-width="0.75" marker-end="url(#arrowhead)" />
<polyline points="541.8125000000001,1043 541.8125000000001,1102.95 624.6650000000003,1102.95 624.6650000000003,1131.45" fill="none" stroke="var(--_line)" stroke-width="0.75" marker-end="url(#arrowhead)" />
<polyline points="624.6650000000003,1167.45 624.6650000000003,1207.45" fill="none" stroke="var(--_line)" stroke-width="0.75" marker-end="url(#arrowhead)" />
<polyline points="624.6650000000003,1243.45 624.6650000000003,1271.95 548.6000000000001,1271.95 548.6000000000001,1300.45" fill="none" stroke="var(--_line)" stroke-width="0.75" marker-end="url(#arrowhead)" />
<polyline points="548.6000000000001,1300.45 548.6000000000001,1271.95 857.6500000000001,1271.95 857.6500000000001,1149.45 747.9150000000003,1149.45" fill="none" stroke="var(--_line)" stroke-width="0.75" marker-end="url(#arrowhead)" />
<polyline points="624.6650000000003,1243.45 624.6650000000003,1271.95 715.4250000000001,1271.95 715.4250000000001,1300.45" fill="none" stroke="var(--_line)" stroke-width="0.75" marker-end="url(#arrowhead)" />
<polyline points="715.4250000000001,1336.45 715.4250000000001,1393.45" fill="none" stroke="var(--_line)" stroke-width="0.75" marker-end="url(#arrowhead)" />
<polyline points="715.4250000000001,1429.45 715.4250000000001,1457.95 628.4375000000001,1457.95 628.4375000000001,1525.05" fill="none" stroke="var(--_line)" stroke-width="0.75" marker-end="url(#arrowhead)" />
<polyline points="628.4375000000001,1561.05 628.4375000000001,1674.65 525.0150000000002,1674.65" fill="none" stroke="var(--_line)" stroke-width="0.75" marker-end="url(#arrowhead)" />
<polyline points="715.4250000000001,1429.45 715.4250000000001,1457.95 784.5375000000001,1457.95 784.5375000000001,1525.05" fill="none" stroke="var(--_line)" stroke-width="0.75" marker-end="url(#arrowhead)" />
<polyline points="784.5375000000001,1561.05 784.5375000000001,1674.65 857.0125000000002,1674.65" fill="none" stroke="var(--_line)" stroke-width="0.75" marker-end="url(#arrowhead)" />
<rect x="138.09000000000003" y="384.55" width="21.72" height="27" rx="4" ry="4" fill="var(--bg)" stroke="var(--_inner-stroke)" stroke-width="0.5" />
<text x="148.95000000000005" y="398.05" text-anchor="middle" dy="0.35em" font-size="11" font-weight="400" fill="var(--_text-muted)">是</text>
<rect x="312.47" y="507.04999999999995" width="21.72" height="27" rx="4" ry="4" fill="var(--bg)" stroke="var(--_inner-stroke)" stroke-width="0.5" />
<text x="323.33000000000004" y="520.55" text-anchor="middle" dy="0.35em" font-size="11" font-weight="400" fill="var(--_text-muted)">否</text>
<rect x="89.47000000000004" y="600.05" width="118.96000000000001" height="27" rx="4" ry="4" fill="var(--bg)" stroke="var(--_inner-stroke)" stroke-width="0.5" />
<text x="148.95000000000005" y="613.55" text-anchor="middle" dy="0.35em" font-size="11" font-weight="400" fill="var(--_text-muted)">Surplus≥7&lt;br/&gt;余量充足</text>
<rect x="244.4400000000001" y="553.55" width="38.88" height="27" rx="4" ry="4" fill="var(--bg)" stroke="var(--_inner-stroke)" stroke-width="0.5" />
<text x="263.8800000000001" y="567.05" text-anchor="middle" dy="0.35em" font-size="11" font-weight="400" fill="var(--_text-muted)">风险过高</text>
<rect x="178.54000000000008" y="1089.45" width="21.72" height="27" rx="4" ry="4" fill="var(--bg)" stroke="var(--_inner-stroke)" stroke-width="0.5" />
<text x="189.4000000000001" y="1102.95" text-anchor="middle" dy="0.35em" font-size="11" font-weight="400" fill="var(--_text-muted)">是</text>
<rect x="334.6400000000001" y="1089.45" width="21.72" height="27" rx="4" ry="4" fill="var(--bg)" stroke="var(--_inner-stroke)" stroke-width="0.5" />
<text x="345.5000000000001" y="1102.95" text-anchor="middle" dy="0.35em" font-size="11" font-weight="400" fill="var(--_text-muted)">否</text>
<rect x="243.1600000000002" y="1351.45" width="21.72" height="27" rx="4" ry="4" fill="var(--bg)" stroke="var(--_inner-stroke)" stroke-width="0.5" />
<text x="254.0200000000002" y="1364.95" text-anchor="middle" dy="0.35em" font-size="11" font-weight="400" fill="var(--_text-muted)">否</text>
<rect x="178.54000000000008" y="1614.65" width="21.72" height="27" rx="4" ry="4" fill="var(--bg)" stroke="var(--_inner-stroke)" stroke-width="0.5" />
<text x="189.4000000000001" y="1628.15" text-anchor="middle" dy="0.35em" font-size="11" font-weight="400" fill="var(--_text-muted)">是</text>
<rect x="384.92000000000013" y="1089.45" width="90.36" height="27" rx="4" ry="4" fill="var(--bg)" stroke="var(--_inner-stroke)" stroke-width="0.5" />
<text x="430.10000000000014" y="1102.95" text-anchor="middle" dy="0.35em" font-size="11" font-weight="400" fill="var(--_text-muted)">CRITICAL/HIGH</text>
<rect x="610.9450000000003" y="1089.45" width="27.44" height="27" rx="4" ry="4" fill="var(--bg)" stroke="var(--_inner-stroke)" stroke-width="0.5" />
<text x="624.6650000000003" y="1102.95" text-anchor="middle" dy="0.35em" font-size="11" font-weight="400" fill="var(--_text-muted)">通过</text>
<rect x="532.0200000000001" y="1258.45" width="33.16" height="27" rx="4" ry="4" fill="var(--bg)" stroke="var(--_inner-stroke)" stroke-width="0.5" />
<text x="548.6000000000001" y="1271.95" text-anchor="middle" dy="0.35em" font-size="11" font-weight="400" fill="var(--_text-muted)">有问题</text>
<rect x="701.705" y="1258.45" width="27.44" height="27" rx="4" ry="4" fill="var(--bg)" stroke="var(--_inner-stroke)" stroke-width="0.5" />
<text x="715.4250000000001" y="1271.95" text-anchor="middle" dy="0.35em" font-size="11" font-weight="400" fill="var(--_text-muted)">通过</text>
<rect x="614.7175000000001" y="1444.45" width="27.44" height="27" rx="4" ry="4" fill="var(--bg)" stroke="var(--_inner-stroke)" stroke-width="0.5" />
<text x="628.4375000000001" y="1457.95" text-anchor="middle" dy="0.35em" font-size="11" font-weight="400" fill="var(--_text-muted)">失败</text>
<rect x="770.8175000000001" y="1444.45" width="27.44" height="27" rx="4" ry="4" fill="var(--bg)" stroke="var(--_inner-stroke)" stroke-width="0.5" />
<text x="784.5375000000001" y="1457.95" text-anchor="middle" dy="0.35em" font-size="11" font-weight="400" fill="var(--_text-muted)">通过</text>
<rect x="164.16249999999997" y="40" width="74.9" height="36" rx="18" ry="18" fill="var(--_node-fill)" stroke="var(--_node-stroke)" stroke-width="0.75" />
<rect x="128.41249999999997" y="116" width="146.4" height="36" rx="0" ry="0" fill="var(--_node-fill)" stroke="var(--_node-stroke)" stroke-width="0.75" />
<polygon points="201.61249999999995,191.99999999999997 290.38749999999993,280.775 201.61249999999995,369.54999999999995 112.83749999999995,280.775" fill="var(--_node-fill)" stroke="var(--_node-stroke)" stroke-width="0.75" />
<rect x="40.00000000000004" y="426.55" width="217.9" height="36" rx="0" ry="0" fill="#9f9" stroke="#333" stroke-width="0.75" />
<rect x="228.7775000000001" y="671.55" width="60.6" height="36" rx="0" ry="0" fill="var(--_node-fill)" stroke="var(--_node-stroke)" stroke-width="0.75" />
<polygon points="101.77500000000003,502.54999999999995 196.12500000000006,502.54999999999995 205.12500000000006,520.55 196.12500000000006,538.55 101.77500000000003,538.55 92.77500000000003,520.55" fill="var(--_node-fill)" stroke="var(--_node-stroke)" stroke-width="0.75" />
<rect x="226.43000000000012" y="595.55" width="74.9" height="36" rx="0" ry="0" fill="var(--_node-fill)" stroke="var(--_node-stroke)" stroke-width="0.75" />
<rect x="175.1525000000001" y="747.55" width="167.85000000000002" height="36" rx="0" ry="0" fill="#99f" stroke="#333" stroke-width="0.75" />
<polygon points="229.7775000000001,823.55 288.37750000000005,823.55 297.37750000000005,841.55 288.37750000000005,859.55 229.7775000000001,859.55 220.7775000000001,841.55" fill="var(--_node-fill)" stroke="var(--_node-stroke)" stroke-width="0.75" />
<rect x="67.93750000000006" y="899.55" width="203.60000000000002" height="36" rx="0" ry="0" fill="var(--_node-fill)" stroke="var(--_node-stroke)" stroke-width="0.75" />
<rect x="295.5375" y="899.55" width="139.25" height="36" rx="0" ry="0" fill="var(--_node-fill)" stroke="var(--_node-stroke)" stroke-width="0.75" />
<polygon points="259.0775000000001,975.55 308.5275000000001,1025 259.0775000000001,1074.45 209.6275000000001,1025" fill="var(--_node-fill)" stroke="var(--_node-stroke)" stroke-width="0.75" />
<rect x="87.60000000000008" y="1131.45" width="203.60000000000002" height="36" rx="0" ry="0" fill="#f99" stroke="#333" stroke-width="0.75" />
<rect x="315.2000000000001" y="1131.45" width="60.6" height="36" rx="0" ry="0" fill="var(--_node-fill)" stroke="var(--_node-stroke)" stroke-width="0.75" />
<rect x="141.22500000000008" y="1207.45" width="96.35000000000001" height="36" rx="0" ry="0" fill="var(--_node-fill)" stroke="var(--_node-stroke)" stroke-width="0.75" />
<rect x="97.20000000000005" y="1300.45" width="103.5" height="36" rx="0" ry="0" fill="var(--_node-fill)" stroke="var(--_node-stroke)" stroke-width="0.75" />
<rect x="90.05000000000004" y="1393.45" width="117.80000000000001" height="36" rx="0" ry="0" fill="var(--_node-fill)" stroke="var(--_node-stroke)" stroke-width="0.75" />
<polygon points="189.4000000000001,1486.45 246.00000000000009,1543.05 189.4000000000001,1599.6499999999999 132.8000000000001,1543.05" fill="var(--_node-fill)" stroke="var(--_node-stroke)" stroke-width="0.75" />
<rect x="450.1150000000002" y="1656.65" width="74.9" height="36" rx="0" ry="0" fill="#ff9" stroke="#333" stroke-width="0.75" />
<polygon points="512.5125,1007 571.1125000000001,1007 580.1125000000001,1025 571.1125000000001,1043 512.5125,1043 503.5125000000001,1025" fill="var(--_node-fill)" stroke="var(--_node-stroke)" stroke-width="0.75" />
<rect x="399.8000000000001" y="1131.45" width="60.6" height="36" rx="0" ry="0" fill="var(--_node-fill)" stroke="var(--_node-stroke)" stroke-width="0.75" />
<rect x="501.4150000000003" y="1131.45" width="246.50000000000003" height="36" rx="0" ry="0" fill="#fc9" stroke="#333" stroke-width="0.75" />
<polygon points="595.3650000000004,1207.45 653.9650000000004,1207.45 662.9650000000004,1225.45 653.9650000000004,1243.45 595.3650000000004,1243.45 586.3650000000004,1225.45" fill="var(--_node-fill)" stroke="var(--_node-stroke)" stroke-width="0.75" />
<rect x="511.15000000000015" y="1300.45" width="74.9" height="36" rx="0" ry="0" fill="var(--_node-fill)" stroke="var(--_node-stroke)" stroke-width="0.75" />
<rect x="610.0500000000001" y="1300.45" width="210.75000000000003" height="36" rx="0" ry="0" fill="var(--_node-fill)" stroke="var(--_node-stroke)" stroke-width="0.75" />
<polygon points="686.1250000000001,1393.45 744.7250000000001,1393.45 753.7250000000001,1411.45 744.7250000000001,1429.45 686.1250000000001,1429.45 677.1250000000001,1411.45" fill="var(--_node-fill)" stroke="var(--_node-stroke)" stroke-width="0.75" />
<rect x="598.1375000000002" y="1525.05" width="60.6" height="36" rx="0" ry="0" fill="var(--_node-fill)" stroke="var(--_node-stroke)" stroke-width="0.75" />
<rect x="700.6125000000002" y="1525.05" width="167.85000000000002" height="36" rx="0" ry="0" fill="var(--_node-fill)" stroke="var(--_node-stroke)" stroke-width="0.75" />
<rect x="857.0125000000002" y="1656.65" width="60.6" height="36" rx="18" ry="18" fill="#9f9" stroke="#333" stroke-width="3px" />
<text x="201.61249999999995" y="58" text-anchor="middle" dy="0.35em" font-size="13" font-weight="500" fill="var(--_text)">用户输入问题</text>
<text x="201.61249999999995" y="134" text-anchor="middle" dy="0.35em" font-size="13" font-weight="500" fill="var(--_text)">意图识别&lt;br/&gt;Agent推荐</text>
<text x="201.61249999999995" y="280.775" text-anchor="middle" dy="0.35em" font-size="13" font-weight="500" fill="var(--_text)">是否需要&lt;br/&gt;CLOSE决策?</text>
<text x="148.95000000000005" y="444.55" text-anchor="middle" dy="0.35em" font-size="13" font-weight="500" fill="var(--_text)">执行 @decision&lt;br/&gt;CLOSE五维评估</text>
<text x="259.0775000000001" y="689.55" text-anchor="middle" dy="0.35em" font-size="13" font-weight="500" fill="var(--_text)">直接规划</text>
<text x="148.95000000000005" y="520.55" text-anchor="middle" dy="0.35em" font-size="13" font-weight="500" fill="var(--_text)">CLOSE评估结果</text>
<text x="263.8800000000001" y="613.55" text-anchor="middle" dy="0.35em" font-size="13" font-weight="500" fill="var(--_text)">请求用户确认</text>
<text x="259.0775000000001" y="765.55" text-anchor="middle" dy="0.35em" font-size="13" font-weight="500" fill="var(--_text)">执行 @plan&lt;br/&gt;生成实施计划</text>
<text x="259.0775000000001" y="841.55" text-anchor="middle" dy="0.35em" font-size="13" font-weight="500" fill="var(--_text)">计划输出</text>
<text x="169.73750000000007" y="917.55" text-anchor="middle" dy="0.35em" font-size="13" font-weight="500" fill="var(--_text)">写入IMPLEMENTATION_PLAN.md</text>
<text x="365.1625" y="917.55" text-anchor="middle" dy="0.35em" font-size="13" font-weight="500" fill="var(--_text)">创建TodoWrite任务列表</text>
<text x="259.0775000000001" y="1025" text-anchor="middle" dy="0.35em" font-size="13" font-weight="500" fill="var(--_text)">需要TDD?</text>
<text x="189.4000000000001" y="1149.45" text-anchor="middle" dy="0.35em" font-size="13" font-weight="500" fill="var(--_text)">执行 @tdd-guide&lt;br/&gt;测试驱动开发</text>
<text x="345.5000000000001" y="1149.45" text-anchor="middle" dy="0.35em" font-size="13" font-weight="500" fill="var(--_text)">直接执行</text>
<text x="189.4000000000001" y="1225.45" text-anchor="middle" dy="0.35em" font-size="13" font-weight="500" fill="var(--_text)">写测试 → RED</text>
<text x="148.95000000000005" y="1318.45" text-anchor="middle" dy="0.35em" font-size="13" font-weight="500" fill="var(--_text)">实现 → GREEN</text>
<text x="148.95000000000005" y="1411.45" text-anchor="middle" dy="0.35em" font-size="13" font-weight="500" fill="var(--_text)">重构 → IMPROVE</text>
<text x="189.4000000000001" y="1543.05" text-anchor="middle" dy="0.35em" font-size="13" font-weight="500" fill="var(--_text)">覆盖率≥80%?</text>
<text x="487.56500000000017" y="1674.65" text-anchor="middle" dy="0.35em" font-size="13" font-weight="500" fill="var(--_text)">REVIEW</text>
<text x="541.8125000000001" y="1025" text-anchor="middle" dy="0.35em" font-size="13" font-weight="500" fill="var(--_text)">审查结果</text>
<text x="430.10000000000014" y="1149.45" text-anchor="middle" dy="0.35em" font-size="13" font-weight="500" fill="var(--_text)">修复问题</text>
<text x="624.6650000000003" y="1149.45" text-anchor="middle" dy="0.35em" font-size="13" font-weight="500" fill="var(--_text)">执行 @security-reviewer&lt;br/&gt;安全审查</text>
<text x="624.6650000000003" y="1225.45" text-anchor="middle" dy="0.35em" font-size="13" font-weight="500" fill="var(--_text)">安全结果</text>
<text x="548.6000000000001" y="1318.45" text-anchor="middle" dy="0.35em" font-size="13" font-weight="500" fill="var(--_text)">修复安全问题</text>
<text x="715.4250000000001" y="1318.45" text-anchor="middle" dy="0.35em" font-size="13" font-weight="500" fill="var(--_text)">执行 @verification&lt;br/&gt;验收测试</text>
<text x="715.4250000000001" y="1411.45" text-anchor="middle" dy="0.35em" font-size="13" font-weight="500" fill="var(--_text)">验收结果</text>
<text x="628.4375000000001" y="1543.05" text-anchor="middle" dy="0.35em" font-size="13" font-weight="500" fill="var(--_text)">迭代优化</text>
<text x="784.5375000000001" y="1543.05" text-anchor="middle" dy="0.35em" font-size="13" font-weight="500" fill="var(--_text)">固化技能&lt;br/&gt;写入SKILL.md</text>
<text x="887.3125000000001" y="1674.65" text-anchor="middle" dy="0.35em" font-size="13" font-weight="500" fill="var(--_text)">任务完成</text>
</svg>