<svg xmlns="http://www.w3.org/2000/svg" viewBox="0 0 1395.0149999999999 2095" width="1395.0149999999999" height="2095" style="--bg:#1a1b26;--fg:#a9b1d6;--line:#3d59a1;--accent:#7aa2f7;--muted:#565f89;background:var(--bg)">
<style>
  @import url('https://fonts.googleapis.com/css2?family=Inter:wght@400;500;600;700&amp;display=swap');
  text { font-family: 'Inter', system-ui, sans-serif; }
  svg {
    /* Derived from --bg and --fg (overridable via --line, --accent, etc.) */
    --_text:          var(--fg);
    --_text-sec:      var(--muted, color-mix(in srgb, var(--fg) 60%, var(--bg)));
    --_text-muted:    var(--muted, color-mix(in srgb, var(--fg) 40%, var(--bg)));
    --_text-faint:    color-mix(in srgb, var(--fg) 25%, var(--bg));
    --_line:          var(--line, color-mix(in srgb, var(--fg) 30%, var(--bg)));
    --_arrow:         var(--accent, color-mix(in srgb, var(--fg) 50%, var(--bg)));
    --_node-fill:     var(--surface, color-mix(in srgb, var(--fg) 3%, var(--bg)));
    --_node-stroke:   var(--border, color-mix(in srgb, var(--fg) 20%, var(--bg)));
    --_group-fill:    var(--bg);
    --_group-hdr:     color-mix(in srgb, var(--fg) 5%, var(--bg));
    --_inner-stroke:  color-mix(in srgb, var(--fg) 12%, var(--bg));
    --_key-badge:     color-mix(in srgb, var(--fg) 10%, var(--bg));
  }
</style>
<defs>
  <marker id="arrowhead" markerWidth="8" markerHeight="4.8" refX="8" refY="2.4" orient="auto">
    <polygon points="0 0, 8 2.4, 0 4.8" fill="var(--_arrow)" />
  </marker>
  <marker id="arrowhead-start" markerWidth="8" markerHeight="4.8" refX="0" refY="2.4" orient="auto-start-reverse">
    <polygon points="8 0, 0 2.4, 8 4.8" fill="var(--_arrow)" />
  </marker>
</defs>
<rect x="768.3874999999998" y="1597" width="176.10000000000002" height="285" rx="0" ry="0" fill="var(--_group-fill)" stroke="var(--_node-stroke)" stroke-width="1" />
<rect x="768.3874999999998" y="1597" width="176.10000000000002" height="28" rx="0" ry="0" fill="var(--_group-hdr)" stroke="var(--_node-stroke)" stroke-width="1" />
<text x="780.3874999999998" y="1611" dy="0.35em" font-size="12" font-weight="600" fill="var(--_text-sec)">Planning Phase</text>
<rect x="125.19999999999982" y="40" width="351.88750000000005" height="2015" rx="0" ry="0" fill="var(--_group-fill)" stroke="var(--_node-stroke)" stroke-width="1" />
<rect x="125.19999999999982" y="40" width="351.88750000000005" height="28" rx="0" ry="0" fill="var(--_group-hdr)" stroke="var(--_node-stroke)" stroke-width="1" />
<text x="137.19999999999982" y="54" dy="0.35em" font-size="12" font-weight="600" fill="var(--_text-sec)">Decision Phase</text>
<rect x="879.5049999999999" y="213" width="335.1224999999999" height="631" rx="0" ry="0" fill="var(--_group-fill)" stroke="var(--_node-stroke)" stroke-width="1" />
<rect x="879.5049999999999" y="213" width="335.1224999999999" height="28" rx="0" ry="0" fill="var(--_group-hdr)" stroke="var(--_node-stroke)" stroke-width="1" />
<text x="891.5049999999999" y="227" dy="0.35em" font-size="12" font-weight="600" fill="var(--_text-sec)">Execution Phase</text>
<rect x="741.0199999999998" y="905" width="531.995" height="631" rx="0" ry="0" fill="var(--_group-fill)" stroke="var(--_node-stroke)" stroke-width="1" />
<rect x="741.0199999999998" y="905" width="531.995" height="28" rx="0" ry="0" fill="var(--_group-hdr)" stroke="var(--_node-stroke)" stroke-width="1" />
<text x="753.0199999999998" y="919" dy="0.35em" font-size="12" font-weight="600" fill="var(--_text-sec)">Completion Phase</text>
<rect x="497.08749999999986" y="559" width="339.3499999999999" height="112" rx="0" ry="0" fill="var(--_group-fill)" stroke="var(--_node-stroke)" stroke-width="1" />
<rect x="497.08749999999986" y="559" width="339.3499999999999" height="28" rx="0" ry="0" fill="var(--_group-hdr)" stroke="var(--_node-stroke)" stroke-width="1" />
<text x="509.08749999999986" y="573" dy="0.35em" font-size="12" font-weight="600" fill="var(--_text-sec)">Error States</text>
<polyline points="72.59999999999991,1170 72.59999999999991,1307" fill="none" stroke="var(--_line)" stroke-width="0.75" marker-end="url(#arrowhead)" />
<polyline points="72.59999999999991,1343 72.59999999999991,1363 785.0399999999997,1363 785.0399999999997,1498 811.8374999999997,1498" fill="none" stroke="var(--_line)" stroke-width="0.75" marker-end="url(#arrowhead)" />
<polyline points="856.4374999999998,1516 856.4374999999998,1653" fill="none" stroke="var(--_line)" stroke-width="0.75" marker-end="url(#arrowhead)" />
<polyline points="856.4374999999998,1689 856.4374999999998,1826" fill="none" stroke="var(--_line)" stroke-width="0.75" marker-end="url(#arrowhead)" />
<polyline points="856.4374999999998,1862 856.4374999999998,1902 341.84749999999985,1902 341.84749999999985,2017 281.08249999999987,2017" fill="none" stroke="var(--_line)" stroke-width="0.75" marker-end="url(#arrowhead)" />
<polyline points="218.60749999999985,1999 218.60749999999985,1979 206.60749999999985,1979 206.60749999999985,114 210.3174999999998,114" fill="none" stroke="var(--_line)" stroke-width="0.75" marker-end="url(#arrowhead)" />
<polyline points="254.9174999999998,132 254.9174999999998,152 404.46749999999975,152 404.46749999999975,287 930.5249999999997,287" fill="none" stroke="var(--_line)" stroke-width="0.75" marker-end="url(#arrowhead)" />
<polyline points="254.9174999999998,132 254.9174999999998,152 279.22749999999974,152 279.22749999999974,269" fill="none" stroke="var(--_line)" stroke-width="0.75" marker-end="url(#arrowhead)" />
<polyline points="992.9999999999998,305 992.9999999999998,442" fill="none" stroke="var(--_line)" stroke-width="0.75" marker-end="url(#arrowhead)" />
<polyline points="992.9999999999998,478 992.9999999999998,498 1057.7599999999998,498 1057.7599999999998,615" fill="none" stroke="var(--_line)" stroke-width="0.75" marker-end="url(#arrowhead)" />
<polyline points="1057.7599999999998,651 1057.7599999999998,671 1137.3024999999998,671 1137.3024999999998,788" fill="none" stroke="var(--_line)" stroke-width="0.75" marker-end="url(#arrowhead)" />
<polyline points="1057.7599999999998,651 1057.7599999999998,671 1039.8899999999999,671 1039.8899999999999,806 1059.4699999999998,806" fill="none" stroke="var(--_line)" stroke-width="0.75" marker-end="url(#arrowhead)" />
<polyline points="1022.0199999999998,788 1022.0199999999998,768 968.9899999999998,768 968.9899999999998,633 1016.7349999999998,633" fill="none" stroke="var(--_line)" stroke-width="0.75" marker-end="url(#arrowhead)" />
<polyline points="1137.3024999999998,824 1137.3024999999998,961" fill="none" stroke="var(--_line)" stroke-width="0.75" marker-end="url(#arrowhead)" />
<polyline points="1137.3024999999998,997 1137.3024999999998,1134" fill="none" stroke="var(--_line)" stroke-width="0.75" marker-end="url(#arrowhead)" />
<polyline points="1137.3024999999998,1170 1137.3024999999998,1190 1199.2649999999999,1190 1199.2649999999999,1307" fill="none" stroke="var(--_line)" stroke-width="0.75" marker-end="url(#arrowhead)" />
<polyline points="1137.3024999999998,1170 1137.3024999999998,1190 1033.2524999999998,1190 1033.2524999999998,1307" fill="none" stroke="var(--_line)" stroke-width="0.75" marker-end="url(#arrowhead)" />
<polyline points="1199.2649999999999,1343 1199.2649999999999,1498 901.0374999999998,1498" fill="none" stroke="var(--_line)" stroke-width="0.75" marker-end="url(#arrowhead)" />
<polyline points="1033.2524999999998,1343 1033.2524999999998,1495.6752620390535 1307.1657537018243,1495.6752620390535" fill="none" stroke="var(--_line)" stroke-width="0.75" marker-end="url(#arrowhead)" />
<polyline points="279.22749999999974,305 279.22749999999974,460 660.8149999999998,460" fill="none" stroke="var(--_line)" stroke-width="0.75" marker-end="url(#arrowhead)" />
<polyline points="698.2649999999999,478 698.2649999999999,498 856.4374999999998,498 856.4374999999998,1480" fill="none" stroke="var(--_line)" stroke-width="0.75" marker-end="url(#arrowhead)" />
<polyline points="992.9999999999998,478 992.9999999999998,498 963.9799999999999,498 963.9799999999999,633 814.4374999999998,633" fill="none" stroke="var(--_line)" stroke-width="0.75" marker-end="url(#arrowhead)" />
<polyline points="698.2649999999999,478 698.2649999999999,498 588.7124999999999,498 588.7124999999999,615" fill="none" stroke="var(--_line)" stroke-width="0.75" marker-end="url(#arrowhead)" />
<polyline points="748.3874999999998,651 748.3874999999998,788" fill="none" stroke="var(--_line)" stroke-width="0.75" marker-end="url(#arrowhead)" />
<polyline points="588.7124999999999,651 588.7124999999999,788" fill="none" stroke="var(--_line)" stroke-width="0.75" marker-end="url(#arrowhead)" />
<rect x="35.99999999999991" y="1225" width="73.2" height="27" rx="4" ry="4" fill="var(--bg)" stroke="var(--_inner-stroke)" stroke-width="0.5" />
<text x="72.59999999999991" y="1238.5" text-anchor="middle" dy="0.35em" font-size="11" font-weight="400" fill="var(--_text-muted)">Initialize</text>
<rect x="757.0199999999998" y="1398" width="56.04" height="27" rx="4" ry="4" fill="var(--bg)" stroke="var(--_inner-stroke)" stroke-width="0.5" />
<text x="785.0399999999997" y="1411.5" text-anchor="middle" dy="0.35em" font-size="11" font-weight="400" fill="var(--_text-muted)">start()</text>
<rect x="811.2574999999998" y="1571" width="90.36" height="27" rx="4" ry="4" fill="var(--bg)" stroke="var(--_inner-stroke)" stroke-width="0.5" />
<text x="856.4374999999998" y="1584.5" text-anchor="middle" dy="0.35em" font-size="11" font-weight="400" fill="var(--_text-muted)">Parse request</text>
<rect x="816.9774999999997" y="1744" width="78.92" height="27" rx="4" ry="4" fill="var(--bg)" stroke="var(--_inner-stroke)" stroke-width="0.5" />
<text x="856.4374999999998" y="1757.5" text-anchor="middle" dy="0.35em" font-size="11" font-weight="400" fill="var(--_text-muted)">Create plan</text>
<rect x="285.22749999999985" y="1917" width="113.24000000000001" height="27" rx="4" ry="4" fill="var(--bg)" stroke="var(--_inner-stroke)" stroke-width="0.5" />
<text x="341.84749999999985" y="1930.5" text-anchor="middle" dy="0.35em" font-size="11" font-weight="400" fill="var(--_text-muted)">User/Auto approve</text>
<rect x="144.26749999999984" y="1052" width="124.68" height="27" rx="4" ry="4" fill="var(--bg)" stroke="var(--_inner-stroke)" stroke-width="0.5" />
<text x="206.60749999999985" y="1065.5" text-anchor="middle" dy="0.35em" font-size="11" font-weight="400" fill="var(--_text-muted)">Evaluate with CLOSE</text>
<rect x="347.84749999999974" y="187" width="113.24000000000001" height="27" rx="4" ry="4" fill="var(--bg)" stroke="var(--_inner-stroke)" stroke-width="0.5" />
<text x="404.46749999999975" y="200.5" text-anchor="middle" dy="0.35em" font-size="11" font-weight="400" fill="var(--_text-muted)">Score &gt; threshold</text>
<rect x="222.60749999999973" y="187" width="113.24000000000001" height="27" rx="4" ry="4" fill="var(--bg)" stroke="var(--_inner-stroke)" stroke-width="0.5" />
<text x="279.22749999999974" y="200.5" text-anchor="middle" dy="0.35em" font-size="11" font-weight="400" fill="var(--_text-muted)">Score &lt; threshold</text>
<rect x="959.2599999999998" y="360" width="67.48" height="27" rx="4" ry="4" fill="var(--bg)" stroke="var(--_inner-stroke)" stroke-width="0.5" />
<text x="992.9999999999998" y="373.5" text-anchor="middle" dy="0.35em" font-size="11" font-weight="400" fill="var(--_text-muted)">Start TDD</text>
<rect x="1024.0199999999998" y="533" width="67.48" height="27" rx="4" ry="4" fill="var(--bg)" stroke="var(--_inner-stroke)" stroke-width="0.5" />
<text x="1057.7599999999998" y="546.5" text-anchor="middle" dy="0.35em" font-size="11" font-weight="400" fill="var(--_text-muted)">Run tests</text>
<rect x="1100.7024999999999" y="706" width="73.2" height="27" rx="4" ry="4" fill="var(--bg)" stroke="var(--_inner-stroke)" stroke-width="0.5" />
<text x="1137.3024999999998" y="719.5" text-anchor="middle" dy="0.35em" font-size="11" font-weight="400" fill="var(--_text-muted)">Tests pass</text>
<rect x="1003.2899999999998" y="706" width="73.2" height="27" rx="4" ry="4" fill="var(--bg)" stroke="var(--_inner-stroke)" stroke-width="0.5" />
<text x="1039.8899999999999" y="719.5" text-anchor="middle" dy="0.35em" font-size="11" font-weight="400" fill="var(--_text-muted)">Tests fail</text>
<rect x="946.6899999999998" y="706" width="44.6" height="27" rx="4" ry="4" fill="var(--bg)" stroke="var(--_inner-stroke)" stroke-width="0.5" />
<text x="968.9899999999998" y="719.5" text-anchor="middle" dy="0.35em" font-size="11" font-weight="400" fill="var(--_text-muted)">Retry</text>
<rect x="1092.1224999999997" y="879" width="90.36" height="27" rx="4" ry="4" fill="var(--bg)" stroke="var(--_inner-stroke)" stroke-width="0.5" />
<text x="1137.3024999999998" y="892.5" text-anchor="middle" dy="0.35em" font-size="11" font-weight="400" fill="var(--_text-muted)">Quality check</text>
<rect x="1083.5424999999998" y="1052" width="107.52000000000001" height="27" rx="4" ry="4" fill="var(--bg)" stroke="var(--_inner-stroke)" stroke-width="0.5" />
<text x="1137.3024999999998" y="1065.5" text-anchor="middle" dy="0.35em" font-size="11" font-weight="400" fill="var(--_text-muted)">Calculate scores</text>
<rect x="1145.5049999999999" y="1225" width="107.52000000000001" height="27" rx="4" ry="4" fill="var(--bg)" stroke="var(--_inner-stroke)" stroke-width="0.5" />
<text x="1199.2649999999999" y="1238.5" text-anchor="middle" dy="0.35em" font-size="11" font-weight="400" fill="var(--_text-muted)">More work needed</text>
<rect x="1002.3724999999998" y="1225" width="61.760000000000005" height="27" rx="4" ry="4" fill="var(--bg)" stroke="var(--_inner-stroke)" stroke-width="0.5" />
<text x="1033.2524999999998" y="1238.5" text-anchor="middle" dy="0.35em" font-size="11" font-weight="400" fill="var(--_text-muted)">All done</text>
<rect x="1151.225" y="1398" width="96.08" height="27" rx="4" ry="4" fill="var(--bg)" stroke="var(--_inner-stroke)" stroke-width="0.5" />
<text x="1199.2649999999999" y="1411.5" text-anchor="middle" dy="0.35em" font-size="11" font-weight="400" fill="var(--_text-muted)">Next iteration</text>
<rect x="1005.2324999999998" y="1398" width="56.04" height="27" rx="4" ry="4" fill="var(--bg)" stroke="var(--_inner-stroke)" stroke-width="0.5" />
<text x="1033.2524999999998" y="1411.5" text-anchor="middle" dy="0.35em" font-size="11" font-weight="400" fill="var(--_text-muted)">Success</text>
<rect x="231.18749999999974" y="360" width="96.08" height="27" rx="4" ry="4" fill="var(--bg)" stroke="var(--_inner-stroke)" stroke-width="0.5" />
<text x="279.22749999999974" y="373.5" text-anchor="middle" dy="0.35em" font-size="11" font-weight="400" fill="var(--_text-muted)">Wait for input</text>
<rect x="825.5574999999998" y="965.5" width="61.760000000000005" height="27" rx="4" ry="4" fill="var(--bg)" stroke="var(--_inner-stroke)" stroke-width="0.5" />
<text x="856.4374999999998" y="979" text-anchor="middle" dy="0.35em" font-size="11" font-weight="400" fill="var(--_text-muted)">resume()</text>
<rect x="915.9399999999999" y="533" width="96.08" height="27" rx="4" ry="4" fill="var(--bg)" stroke="var(--_inner-stroke)" stroke-width="0.5" />
<text x="963.9799999999999" y="546.5" text-anchor="middle" dy="0.35em" font-size="11" font-weight="400" fill="var(--_text-muted)">Critical error</text>
<rect x="563.5524999999999" y="533" width="50.32" height="27" rx="4" ry="4" fill="var(--bg)" stroke="var(--_inner-stroke)" stroke-width="0.5" />
<text x="588.7124999999999" y="546.5" text-anchor="middle" dy="0.35em" font-size="11" font-weight="400" fill="var(--_text-muted)">stop()</text>
<rect x="720.3674999999998" y="706" width="56.04" height="27" rx="4" ry="4" fill="var(--bg)" stroke="var(--_inner-stroke)" stroke-width="0.5" />
<text x="748.3874999999998" y="719.5" text-anchor="middle" dy="0.35em" font-size="11" font-weight="400" fill="var(--_text-muted)">Cleanup</text>
<rect x="560.6924999999999" y="706" width="56.04" height="27" rx="4" ry="4" fill="var(--bg)" stroke="var(--_inner-stroke)" stroke-width="0.5" />
<text x="588.7124999999999" y="719.5" text-anchor="middle" dy="0.35em" font-size="11" font-weight="400" fill="var(--_text-muted)">Cleanup</text>
<circle cx="72.59999999999991" cy="1152" r="16" fill="var(--_text)" stroke="none" />
<rect x="42.29999999999991" y="1307" width="60.6" height="36" rx="6" ry="6" fill="var(--_node-fill)" stroke="var(--_node-stroke)" stroke-width="0.75" />
<circle cx="1325.0149999999999" cy="1498" r="16" fill="none" stroke="var(--_text)" stroke-width="1.5" />
<circle cx="1325.0149999999999" cy="1498" r="12" fill="var(--_text)" stroke="none" />
<rect x="660.8149999999998" y="442" width="74.9" height="36" rx="6" ry="6" fill="var(--_node-fill)" stroke="var(--_node-stroke)" stroke-width="0.75" />
<circle cx="748.3874999999998" cy="806" r="16" fill="none" stroke="var(--_text)" stroke-width="1.5" />
<circle cx="748.3874999999998" cy="806" r="12" fill="var(--_text)" stroke="none" />
<circle cx="588.7124999999999" cy="806" r="16" fill="none" stroke="var(--_text)" stroke-width="1.5" />
<circle cx="588.7124999999999" cy="806" r="12" fill="var(--_text)" stroke="none" />
<rect x="811.8374999999997" y="1480" width="89.2" height="36" rx="6" ry="6" fill="var(--_node-fill)" stroke="var(--_node-stroke)" stroke-width="0.75" />
<rect x="793.9624999999997" y="1653" width="124.95" height="36" rx="6" ry="6" fill="var(--_node-fill)" stroke="var(--_node-stroke)" stroke-width="0.75" />
<rect x="790.3874999999998" y="1826" width="132.10000000000002" height="36" rx="6" ry="6" fill="var(--_node-fill)" stroke="var(--_node-stroke)" stroke-width="0.75" />
<rect x="156.13249999999985" y="1999" width="124.95" height="36" rx="6" ry="6" fill="var(--_node-fill)" stroke="var(--_node-stroke)" stroke-width="0.75" />
<rect x="210.3174999999998" y="96" width="89.2" height="36" rx="6" ry="6" fill="var(--_node-fill)" stroke="var(--_node-stroke)" stroke-width="0.75" />
<rect x="930.5249999999997" y="269" width="124.95" height="36" rx="6" ry="6" fill="var(--_node-fill)" stroke="var(--_node-stroke)" stroke-width="0.75" />
<rect x="238.20249999999973" y="269" width="82.05000000000001" height="36" rx="6" ry="6" fill="var(--_node-fill)" stroke="var(--_node-stroke)" stroke-width="0.75" />
<rect x="944.8249999999998" y="442" width="96.35000000000001" height="36" rx="6" ry="6" fill="var(--_node-fill)" stroke="var(--_node-stroke)" stroke-width="0.75" />
<rect x="1016.7349999999998" y="615" width="82.05000000000001" height="36" rx="6" ry="6" fill="var(--_node-fill)" stroke="var(--_node-stroke)" stroke-width="0.75" />
<rect x="1089.1274999999998" y="788" width="96.35000000000001" height="36" rx="6" ry="6" fill="var(--_node-fill)" stroke="var(--_node-stroke)" stroke-width="0.75" />
<rect x="984.5699999999997" y="788" width="74.9" height="36" rx="6" ry="6" fill="var(--_node-fill)" stroke="var(--_node-stroke)" stroke-width="0.75" />
<rect x="1085.5524999999998" y="961" width="103.5" height="36" rx="6" ry="6" fill="var(--_node-fill)" stroke="var(--_node-stroke)" stroke-width="0.75" />
<rect x="1096.2774999999997" y="1134" width="82.05000000000001" height="36" rx="6" ry="6" fill="var(--_node-fill)" stroke="var(--_node-stroke)" stroke-width="0.75" />
<rect x="1147.5149999999999" y="1307" width="103.5" height="36" rx="6" ry="6" fill="var(--_node-fill)" stroke="var(--_node-stroke)" stroke-width="0.75" />
<rect x="985.0774999999999" y="1307" width="96.35000000000001" height="36" rx="6" ry="6" fill="var(--_node-fill)" stroke="var(--_node-stroke)" stroke-width="0.75" />
<rect x="682.3374999999999" y="615" width="132.10000000000002" height="36" rx="6" ry="6" fill="var(--_node-fill)" stroke="var(--_node-stroke)" stroke-width="0.75" />
<rect x="519.0874999999999" y="615" width="139.25" height="36" rx="6" ry="6" fill="var(--_node-fill)" stroke="var(--_node-stroke)" stroke-width="0.75" />

<text x="72.59999999999991" y="1325" text-anchor="middle" dy="0.35em" font-size="13" font-weight="500" fill="var(--_text)">IDLE</text>

<text x="698.2649999999999" y="460" text-anchor="middle" dy="0.35em" font-size="13" font-weight="500" fill="var(--_text)">PAUSED</text>


<text x="856.4374999999998" y="1498" text-anchor="middle" dy="0.35em" font-size="13" font-weight="500" fill="var(--_text)">PLANNING</text>
<text x="856.4374999999998" y="1671" text-anchor="middle" dy="0.35em" font-size="13" font-weight="500" fill="var(--_text)">UNDERSTANDING</text>
<text x="856.4374999999998" y="1844" text-anchor="middle" dy="0.35em" font-size="13" font-weight="500" fill="var(--_text)">PLAN_GENERATED</text>
<text x="218.60749999999985" y="2017" text-anchor="middle" dy="0.35em" font-size="13" font-weight="500" fill="var(--_text)">PLAN_APPROVED</text>
<text x="254.9174999999998" y="114" text-anchor="middle" dy="0.35em" font-size="13" font-weight="500" fill="var(--_text)">DECIDING</text>
<text x="992.9999999999998" y="287" text-anchor="middle" dy="0.35em" font-size="13" font-weight="500" fill="var(--_text)">DECISION_MADE</text>
<text x="279.22749999999974" y="287" text-anchor="middle" dy="0.35em" font-size="13" font-weight="500" fill="var(--_text)">BLOCKED</text>
<text x="992.9999999999998" y="460" text-anchor="middle" dy="0.35em" font-size="13" font-weight="500" fill="var(--_text)">EXECUTING</text>
<text x="1057.7599999999998" y="633" text-anchor="middle" dy="0.35em" font-size="13" font-weight="500" fill="var(--_text)">TESTING</text>
<text x="1137.3024999999998" y="806" text-anchor="middle" dy="0.35em" font-size="13" font-weight="500" fill="var(--_text)">VERIFYING</text>
<text x="1022.0199999999998" y="806" text-anchor="middle" dy="0.35em" font-size="13" font-weight="500" fill="var(--_text)">FIXING</text>
<text x="1137.3024999999998" y="979" text-anchor="middle" dy="0.35em" font-size="13" font-weight="500" fill="var(--_text)">EVALUATING</text>
<text x="1137.3024999999998" y="1152" text-anchor="middle" dy="0.35em" font-size="13" font-weight="500" fill="var(--_text)">SCORING</text>
<text x="1199.2649999999999" y="1325" text-anchor="middle" dy="0.35em" font-size="13" font-weight="500" fill="var(--_text)">CONTINUING</text>
<text x="1033.2524999999998" y="1325" text-anchor="middle" dy="0.35em" font-size="13" font-weight="500" fill="var(--_text)">COMPLETED</text>
<text x="748.3874999999998" y="633" text-anchor="middle" dy="0.35em" font-size="13" font-weight="500" fill="var(--_text)">Session failed</text>
<text x="588.7124999999999" y="633" text-anchor="middle" dy="0.35em" font-size="13" font-weight="500" fill="var(--_text)">Stopped by user</text>
</svg>