<svg xmlns="http://www.w3.org/2000/svg" viewBox="0 0 1311.1924999999999 356" width="1311.1924999999999" height="356" style="--bg:#0d1117;--fg:#e6edf3;--line:#3d444d;--accent:#4493f8;--muted:#9198a1;background:var(--bg)">
<style>
  @import url('https://fonts.googleapis.com/css2?family=Inter:wght@400;500;600;700&amp;display=swap');
  text { font-family: 'Inter', system-ui, sans-serif; }
  svg {
    /* Derived from --bg and --fg (overridable via --line, --accent, etc.) */
    --_text:          var(--fg);
    --_text-sec:      var(--muted, color-mix(in srgb, var(--fg) 60%, var(--bg)));
    --_text-muted:    var(--muted, color-mix(in srgb, var(--fg) 40%, var(--bg)));
    --_text-faint:    color-mix(in srgb, var(--fg) 25%, var(--bg));
    --_line:          var(--line, color-mix(in srgb, var(--fg) 30%, var(--bg)));
    --_arrow:         var(--accent, color-mix(in srgb, var(--fg) 50%, var(--bg)));
    --_node-fill:     var(--surface, color-mix(in srgb, var(--fg) 3%, var(--bg)));
    --_node-stroke:   var(--border, color-mix(in srgb, var(--fg) 20%, var(--bg)));
    --_group-fill:    var(--bg);
    --_group-hdr:     color-mix(in srgb, var(--fg) 5%, var(--bg));
    --_inner-stroke:  color-mix(in srgb, var(--fg) 12%, var(--bg));
    --_key-badge:     color-mix(in srgb, var(--fg) 10%, var(--bg));
  }
</style>
<defs>
  <marker id="arrowhead" markerWidth="8" markerHeight="4.8" refX="8" refY="2.4" orient="auto">
    <polygon points="0 0, 8 2.4, 0 4.8" fill="var(--_arrow)" />
  </marker>
  <marker id="arrowhead-start" markerWidth="8" markerHeight="4.8" refX="0" refY="2.4" orient="auto-start-reverse">
    <polygon points="8 0, 0 2.4, 8 4.8" fill="var(--_arrow)" />
  </marker>
</defs>
<rect x="40" y="40" width="416.7999999999999" height="112" rx="0" ry="0" fill="var(--_group-fill)" stroke="var(--_node-stroke)" stroke-width="1" />
<rect x="40" y="40" width="416.7999999999999" height="28" rx="0" ry="0" fill="var(--_group-hdr)" stroke="var(--_node-stroke)" stroke-width="1" />
<text x="52" y="54" dy="0.35em" font-size="12" font-weight="600" fill="var(--_text-sec)">&quot;图例说明&quot;</text>
<rect x="476.79999999999984" y="40" width="126.04999999999995" height="112" rx="0" ry="0" fill="var(--_group-fill)" stroke="var(--_node-stroke)" stroke-width="1" />
<rect x="476.79999999999984" y="40" width="126.04999999999995" height="28" rx="0" ry="0" fill="var(--_group-hdr)" stroke="var(--_node-stroke)" stroke-width="1" />
<text x="488.79999999999984" y="54" dy="0.35em" font-size="12" font-weight="600" fill="var(--_text-sec)">&quot;ZeroBot (Rust)&quot;</text>
<rect x="737.2699999999998" y="40" width="377.11" height="112" rx="0" ry="0" fill="var(--_group-fill)" stroke="var(--_node-stroke)" stroke-width="1" />
<rect x="737.2699999999998" y="40" width="377.11" height="28" rx="0" ry="0" fill="var(--_group-hdr)" stroke="var(--_node-stroke)" stroke-width="1" />
<text x="749.2699999999998" y="54" dy="0.35em" font-size="12" font-weight="600" fill="var(--_text-sec)">&quot;CodeCoder (TypeScript)&quot;</text>
<polyline points="539.8249999999998,132 539.8249999999998,292.5 460.21249999999986,292.5" fill="none" stroke="var(--_line)" stroke-width="1.5" marker-end="url(#arrowhead)" />
<polyline points="1024.5475,132 1024.5475,152 788.7824999999998,152 788.7824999999998,292.5 742.4624999999999,292.5" fill="none" stroke="var(--_line)" stroke-width="0.75" stroke-dasharray="4 4" marker-end="url(#arrowhead)" />
<polyline points="1024.5475,132 1024.5475,152 1072.8674999999998,152 1072.8674999999998,269" fill="none" stroke="var(--_line)" stroke-width="1.5" marker-end="url(#arrowhead)" />
<polyline points="601.3374999999999,269 601.3374999999999,269 797.4958333333332,269 797.4958333333332,292.5 808.5024999999998,292.5 808.5024999999998,316 786.4891666666665,316 786.4891666666665,292.5 742.4624999999999,292.5" fill="none" stroke="var(--_line)" stroke-width="0.75" stroke-dasharray="4 4" marker-end="url(#arrowhead)" marker-start="url(#arrowhead-start)" />
<rect x="497.5049999999998" y="187" width="84.64" height="27" rx="4" ry="4" fill="var(--bg)" stroke="var(--_inner-stroke)" stroke-width="0.5" />
<text x="539.8249999999998" y="200.5" text-anchor="middle" dy="0.35em" font-size="11" font-weight="400" fill="var(--_text-muted)">&quot;读写\n(完全控制)&quot;</text>
<rect x="746.4624999999997" y="187" width="84.64" height="27" rx="4" ry="4" fill="var(--bg)" stroke="var(--_inner-stroke)" stroke-width="0.5" />
<text x="788.7824999999998" y="200.5" text-anchor="middle" dy="0.35em" font-size="11" font-weight="400" fill="var(--_text-muted)">&quot;只读\n(安全默认)&quot;</text>
<rect x="1030.5475" y="187" width="84.64" height="27" rx="4" ry="4" fill="var(--bg)" stroke="var(--_inner-stroke)" stroke-width="0.5" />
<text x="1072.8674999999998" y="200.5" text-anchor="middle" dy="0.35em" font-size="11" font-weight="400" fill="var(--_text-muted)">&quot;读写\n(完全控制)&quot;</text>
<rect x="760.4624999999999" y="279" width="96.08" height="27" rx="4" ry="4" fill="var(--bg)" stroke="var(--_inner-stroke)" stroke-width="0.5" />
<text x="808.5024999999998" y="292.5" text-anchor="middle" dy="0.35em" font-size="11" font-weight="400" fill="var(--_text-muted)">&quot;共享数据库\n跨系统协作&quot;</text>
<rect x="460.21249999999986" y="276" width="282.25" height="33" fill="#ff8f00" stroke="none" />
<line x1="460.21249999999986" y1="276" x2="460.21249999999986" y2="309" stroke="#e65100" stroke-width="0.75" />
<line x1="742.4624999999999" y1="276" x2="742.4624999999999" y2="309" stroke="#e65100" stroke-width="0.75" />
<ellipse cx="601.3374999999999" cy="309" rx="141.125" ry="7" fill="#ff8f00" stroke="#e65100" stroke-width="0.75" />
<ellipse cx="601.3374999999999" cy="276" rx="141.125" ry="7" fill="#ff8f00" stroke="#e65100" stroke-width="0.75" />
<rect x="874.5424999999998" y="276" width="396.65000000000003" height="33" fill="#4caf50" stroke="none" />
<line x1="874.5424999999998" y1="276" x2="874.5424999999998" y2="309" stroke="#2e7d32" stroke-width="0.75" />
<line x1="1271.1924999999999" y1="276" x2="1271.1924999999999" y2="309" stroke="#2e7d32" stroke-width="0.75" />
<ellipse cx="1072.8674999999998" cy="309" rx="198.32500000000002" ry="7" fill="#4caf50" stroke="#2e7d32" stroke-width="0.75" />
<ellipse cx="1072.8674999999998" cy="276" rx="198.32500000000002" ry="7" fill="#4caf50" stroke="#2e7d32" stroke-width="0.75" />
<rect x="62" y="96" width="103.5" height="36" rx="0" ry="0" fill="var(--_node-fill)" stroke="var(--_node-stroke)" stroke-width="0.75" />
<rect x="189.49999999999994" y="96" width="103.5" height="36" rx="0" ry="0" fill="var(--_node-fill)" stroke="var(--_node-stroke)" stroke-width="0.75" />
<rect x="316.9999999999999" y="96" width="117.80000000000001" height="36" rx="0" ry="0" fill="var(--_node-fill)" stroke="var(--_node-stroke)" stroke-width="0.75" />
<rect x="498.79999999999984" y="96" width="82.05000000000001" height="36" rx="0" ry="0" fill="#dea584" stroke="#b7410e" stroke-width="0.75" />
<rect x="983.5224999999999" y="96" width="82.05000000000001" height="36" rx="0" ry="0" fill="#3178c6" stroke="#235a97" stroke-width="0.75" />
<text x="601.3374999999999" y="292.5" text-anchor="middle" dy="0.35em" font-size="13" font-weight="500" fill="#000">&quot;SQLite\n~/.codecoder/.../brain.db&quot;</text>
<text x="1072.8674999999998" y="292.5" text-anchor="middle" dy="0.35em" font-size="13" font-weight="500" fill="#fff">&quot;Markdown\n./memory/MEMORY.md\n./memory/daily/*.md&quot;</text>
<text x="113.75" y="114" text-anchor="middle" dy="0.35em" font-size="13" font-weight="500" fill="var(--_text)">&quot;═══ 读写权限&quot;</text>
<text x="241.24999999999994" y="114" text-anchor="middle" dy="0.35em" font-size="13" font-weight="500" fill="var(--_text)">&quot;─── 只读权限&quot;</text>
<text x="375.89999999999986" y="114" text-anchor="middle" dy="0.35em" font-size="13" font-weight="500" fill="var(--_text)">&quot;- - - 共享数据&quot;</text>
<text x="539.8249999999998" y="114" text-anchor="middle" dy="0.35em" font-size="13" font-weight="500" fill="#000">&quot;Agent&quot;</text>
<text x="1024.5475" y="114" text-anchor="middle" dy="0.35em" font-size="13" font-weight="500" fill="#fff">&quot;Agent&quot;</text>
</svg>