<svg xmlns="http://www.w3.org/2000/svg" viewBox="0 0 684.69 275.5" width="684.69" height="275.5" style="--bg:#1a1b26;--fg:#a9b1d6;--line:#3d59a1;--accent:#7aa2f7;--muted:#565f89;background:var(--bg)">
<style>
  @import url('https://fonts.googleapis.com/css2?family=Inter:wght@400;500;600;700&amp;display=swap');
  text { font-family: 'Inter', system-ui, sans-serif; }
  svg {
    /* Derived from --bg and --fg (overridable via --line, --accent, etc.) */
    --_text:          var(--fg);
    --_text-sec:      var(--muted, color-mix(in srgb, var(--fg) 60%, var(--bg)));
    --_text-muted:    var(--muted, color-mix(in srgb, var(--fg) 40%, var(--bg)));
    --_text-faint:    color-mix(in srgb, var(--fg) 25%, var(--bg));
    --_line:          var(--line, color-mix(in srgb, var(--fg) 30%, var(--bg)));
    --_arrow:         var(--accent, color-mix(in srgb, var(--fg) 50%, var(--bg)));
    --_node-fill:     var(--surface, color-mix(in srgb, var(--fg) 3%, var(--bg)));
    --_node-stroke:   var(--border, color-mix(in srgb, var(--fg) 20%, var(--bg)));
    --_group-fill:    var(--bg);
    --_group-hdr:     color-mix(in srgb, var(--fg) 5%, var(--bg));
    --_inner-stroke:  color-mix(in srgb, var(--fg) 12%, var(--bg));
    --_key-badge:     color-mix(in srgb, var(--fg) 10%, var(--bg));
  }
</style>
<defs>
  <marker id="arrowhead" markerWidth="8" markerHeight="4.8" refX="8" refY="2.4" orient="auto">
    <polygon points="0 0, 8 2.4, 0 4.8" fill="var(--_arrow)" />
  </marker>
  <marker id="arrowhead-start" markerWidth="8" markerHeight="4.8" refX="0" refY="2.4" orient="auto-start-reverse">
    <polygon points="8 0, 0 2.4, 8 4.8" fill="var(--_arrow)" />
  </marker>
</defs>
<rect x="40" y="124" width="305.90000000000003" height="96" rx="0" ry="0" fill="var(--_group-fill)" stroke="var(--_node-stroke)" stroke-width="1" />
<rect x="40" y="124" width="305.90000000000003" height="28" rx="0" ry="0" fill="var(--_group-hdr)" stroke="var(--_node-stroke)" stroke-width="1" />
<text x="52" y="138" dy="0.35em" font-size="12" font-weight="600" fill="var(--_text-sec)">写入操作[&quot;写入操作 (Write)&quot;]</text>
<rect x="40" y="40" width="305.90000000000003" height="96" rx="0" ry="0" fill="var(--_group-fill)" stroke="var(--_node-stroke)" stroke-width="1" />
<rect x="40" y="40" width="305.90000000000003" height="28" rx="0" ry="0" fill="var(--_group-hdr)" stroke="var(--_node-stroke)" stroke-width="1" />
<text x="52" y="54" dy="0.35em" font-size="12" font-weight="600" fill="var(--_text-sec)">读取操作[&quot;读取操作 (Read)&quot;]</text>
<polyline points="263.85,190 404.22,190 404.22,129.5 553.615,129.5 553.615,111" fill="none" stroke="var(--_line)" stroke-width="0.75" marker-end="url(#arrowhead)" />
<polyline points="263.85,190 404.22,190 404.22,227 553.615,227 553.615,232" fill="none" stroke="var(--_line)" stroke-width="1.5" marker-end="url(#arrowhead)" />
<polyline points="263.85,106 404.22,106 404.22,69 553.615,69 553.615,64" fill="none" stroke="var(--_line)" stroke-width="0.75" marker-end="url(#arrowhead)" />
<polyline points="263.85,106 404.22,106 404.22,166.5 553.615,166.5 553.615,185" fill="none" stroke="var(--_line)" stroke-width="0.75" marker-end="url(#arrowhead)" />
<rect x="361.90000000000003" y="116" width="84.64" height="27" rx="4" ry="4" fill="var(--bg)" stroke="var(--_inner-stroke)" stroke-width="0.5" />
<text x="404.22" y="129.5" text-anchor="middle" dy="0.35em" font-size="11" font-weight="400" fill="var(--_text-muted)">默认只读\n显式开启可写</text>
<rect x="390.5" y="213.5" width="27.44" height="27" rx="4" ry="4" fill="var(--bg)" stroke="var(--_inner-stroke)" stroke-width="0.5" />
<text x="404.22" y="227" text-anchor="middle" dy="0.35em" font-size="11" font-weight="400" fill="var(--_text-muted)">读写</text>
<rect x="379.06" y="55.5" width="50.32" height="27" rx="4" ry="4" fill="var(--bg)" stroke="var(--_inner-stroke)" stroke-width="0.5" />
<text x="404.22" y="69" text-anchor="middle" dy="0.35em" font-size="11" font-weight="400" fill="var(--_text-muted)">FTS5搜索</text>
<rect x="384.78000000000003" y="153" width="38.88" height="27" rx="4" ry="4" fill="var(--bg)" stroke="var(--_inner-stroke)" stroke-width="0.5" />
<text x="404.22" y="166.5" text-anchor="middle" dy="0.35em" font-size="11" font-weight="400" fill="var(--_text-muted)">文本匹配</text>
<rect x="473.265" y="71" width="160.70000000000002" height="33" fill="#ff8f00" stroke="none" />
<line x1="473.265" y1="71" x2="473.265" y2="104" stroke="#e65100" stroke-width="0.75" />
<line x1="633.965" y1="71" x2="633.965" y2="104" stroke="#e65100" stroke-width="0.75" />
<ellipse cx="553.615" cy="104" rx="80.35000000000001" ry="7" fill="#ff8f00" stroke="#e65100" stroke-width="0.75" />
<ellipse cx="553.615" cy="71" rx="80.35000000000001" ry="7" fill="#ff8f00" stroke="#e65100" stroke-width="0.75" />
<rect x="462.54" y="192" width="182.15" height="33" fill="#2e7d32" stroke="none" />
<line x1="462.54" y1="192" x2="462.54" y2="225" stroke="#1b5e20" stroke-width="0.75" />
<line x1="644.69" y1="192" x2="644.69" y2="225" stroke="#1b5e20" stroke-width="0.75" />
<ellipse cx="553.615" cy="225" rx="91.075" ry="7" fill="#2e7d32" stroke="#1b5e20" stroke-width="0.75" />
<ellipse cx="553.615" cy="192" rx="91.075" ry="7" fill="#2e7d32" stroke="#1b5e20" stroke-width="0.75" />
<rect x="56" y="172" width="117.80000000000001" height="36" rx="0" ry="0" fill="#c62828" stroke="#b71c1c" stroke-width="0.75" />
<rect x="197.8" y="172" width="132.10000000000002" height="36" rx="0" ry="0" fill="#c62828" stroke="#b71c1c" stroke-width="0.75" />
<rect x="56" y="88" width="117.80000000000001" height="36" rx="0" ry="0" fill="#1565c0" stroke="#0d47a1" stroke-width="0.75" />
<rect x="197.8" y="88" width="132.10000000000002" height="36" rx="0" ry="0" fill="#1565c0" stroke="#0d47a1" stroke-width="0.75" />
<text x="553.615" y="87.5" text-anchor="middle" dy="0.35em" font-size="13" font-weight="500" fill="#000">&quot;SQLite\nbrain.db&quot;</text>
<text x="553.615" y="208.5" text-anchor="middle" dy="0.35em" font-size="13" font-weight="500" fill="#fff">&quot;Markdown\n./memory/&quot;</text>
<text x="114.9" y="190" text-anchor="middle" dy="0.35em" font-size="13" font-weight="500" fill="#fff">&quot;ZeroBot 写入&quot;</text>
<text x="263.85" y="190" text-anchor="middle" dy="0.35em" font-size="13" font-weight="500" fill="#fff">&quot;CodeCoder 写入&quot;</text>
<text x="114.9" y="106" text-anchor="middle" dy="0.35em" font-size="13" font-weight="500" fill="#fff">&quot;ZeroBot 读取&quot;</text>
<text x="263.85" y="106" text-anchor="middle" dy="0.35em" font-size="13" font-weight="500" fill="#fff">&quot;CodeCoder 读取&quot;</text>
</svg>