<svg xmlns="http://www.w3.org/2000/svg" viewBox="0 0 779.6 844" width="779.6" height="844" style="--bg:#1a1b26;--fg:#a9b1d6;--line:#3d59a1;--accent:#7aa2f7;--muted:#565f89;background:var(--bg)">
<style>
  @import url('https://fonts.googleapis.com/css2?family=Inter:wght@400;500;600;700&amp;display=swap');
  text { font-family: 'Inter', system-ui, sans-serif; }
  svg {
    /* Derived from --bg and --fg (overridable via --line, --accent, etc.) */
    --_text:          var(--fg);
    --_text-sec:      var(--muted, color-mix(in srgb, var(--fg) 60%, var(--bg)));
    --_text-muted:    var(--muted, color-mix(in srgb, var(--fg) 40%, var(--bg)));
    --_text-faint:    color-mix(in srgb, var(--fg) 25%, var(--bg));
    --_line:          var(--line, color-mix(in srgb, var(--fg) 30%, var(--bg)));
    --_arrow:         var(--accent, color-mix(in srgb, var(--fg) 50%, var(--bg)));
    --_node-fill:     var(--surface, color-mix(in srgb, var(--fg) 3%, var(--bg)));
    --_node-stroke:   var(--border, color-mix(in srgb, var(--fg) 20%, var(--bg)));
    --_group-fill:    var(--bg);
    --_group-hdr:     color-mix(in srgb, var(--fg) 5%, var(--bg));
    --_inner-stroke:  color-mix(in srgb, var(--fg) 12%, var(--bg));
    --_key-badge:     color-mix(in srgb, var(--fg) 10%, var(--bg));
  }
</style>
<defs>
  <marker id="arrowhead" markerWidth="8" markerHeight="4.8" refX="8" refY="2.4" orient="auto">
    <polygon points="0 0, 8 2.4, 0 4.8" fill="var(--_arrow)" />
  </marker>
  <marker id="arrowhead-start" markerWidth="8" markerHeight="4.8" refX="0" refY="2.4" orient="auto-start-reverse">
    <polygon points="8 0, 0 2.4, 8 4.8" fill="var(--_arrow)" />
  </marker>
</defs>
<rect x="40" y="352" width="176.09999999999997" height="268" rx="0" ry="0" fill="var(--_group-fill)" stroke="var(--_node-stroke)" stroke-width="1" />
<rect x="40" y="352" width="176.09999999999997" height="28" rx="0" ry="0" fill="var(--_group-hdr)" stroke="var(--_node-stroke)" stroke-width="1" />
<text x="52" y="366" dy="0.35em" font-size="12" font-weight="600" fill="var(--_text-sec)">&quot;ZeroBot (Rust)&quot;</text>
<rect x="236.09999999999997" y="40" width="442.725" height="580" rx="0" ry="0" fill="var(--_group-fill)" stroke="var(--_node-stroke)" stroke-width="1" />
<rect x="236.09999999999997" y="40" width="442.725" height="28" rx="0" ry="0" fill="var(--_group-hdr)" stroke="var(--_node-stroke)" stroke-width="1" />
<text x="248.09999999999997" y="54" dy="0.35em" font-size="12" font-weight="600" fill="var(--_text-sec)">&quot;CodeCoder (TypeScript)&quot;</text>
<rect x="44.36250000000001" y="681" width="695.2375000000001" height="123" rx="0" ry="0" fill="var(--_group-fill)" stroke="var(--_node-stroke)" stroke-width="1" />
<rect x="44.36250000000001" y="681" width="695.2375000000001" height="28" rx="0" ry="0" fill="var(--_group-hdr)" stroke="var(--_node-stroke)" stroke-width="1" />
<text x="56.36250000000001" y="695" dy="0.35em" font-size="12" font-weight="600" fill="var(--_text-sec)">&quot;存储层&quot;</text>
<polyline points="128.04999999999998,444 128.04999999999998,564" fill="none" stroke="var(--_line)" stroke-width="0.75" marker-end="url(#arrowhead)" />
<polyline points="128.04999999999998,600 128.04999999999998,760.5 124.29999999999994,760.5" fill="none" stroke="var(--_line)" stroke-width="0.75" marker-end="url(#arrowhead)" />
<polyline points="493.0625,132 493.0625,252" fill="none" stroke="var(--_line)" stroke-width="0.75" marker-end="url(#arrowhead)" />
<polyline points="493.0625,288 493.0625,408" fill="none" stroke="var(--_line)" stroke-width="0.75" marker-end="url(#arrowhead)" />
<polyline points="493.0625,444 493.0625,464 331.29999999999995,464 331.29999999999995,564" fill="none" stroke="var(--_line)" stroke-width="0.75" marker-end="url(#arrowhead)" />
<polyline points="493.0625,444 493.0625,464 580.05,464 580.05,564" fill="none" stroke="var(--_line)" stroke-width="0.75" marker-end="url(#arrowhead)" />
<polyline points="331.29999999999995,600 331.29999999999995,760.5 335.04999999999995,760.5" fill="none" stroke="var(--_line)" stroke-width="0.75" marker-end="url(#arrowhead)" />
<polyline points="580.05,600 580.05,737" fill="none" stroke="var(--_line)" stroke-width="0.75" marker-end="url(#arrowhead)" />
<polyline points="229.67499999999995,737 229.67499999999995,737 391.0083333333333,737 391.0083333333333,760.5 402.19999999999993,760.5 402.19999999999993,784 379.8166666666666,784 379.8166666666666,760.5 335.04999999999995,760.5" fill="none" stroke="var(--_line)" stroke-width="0.75" stroke-dasharray="4 4" marker-end="url(#arrowhead)" />
<rect x="114.32999999999998" y="655" width="27.44" height="27" rx="4" ry="4" fill="var(--bg)" stroke="var(--_inner-stroke)" stroke-width="0.5" />
<text x="128.04999999999998" y="668.5" text-anchor="middle" dy="0.35em" font-size="11" font-weight="400" fill="var(--_text-muted)">读写</text>
<rect x="311.85999999999996" y="655" width="38.88" height="27" rx="4" ry="4" fill="var(--bg)" stroke="var(--_inner-stroke)" stroke-width="0.5" />
<text x="331.29999999999995" y="668.5" text-anchor="middle" dy="0.35em" font-size="11" font-weight="400" fill="var(--_text-muted)">默认只读</text>
<rect x="566.3299999999999" y="655" width="27.44" height="27" rx="4" ry="4" fill="var(--bg)" stroke="var(--_inner-stroke)" stroke-width="0.5" />
<text x="580.05" y="668.5" text-anchor="middle" dy="0.35em" font-size="11" font-weight="400" fill="var(--_text-muted)">读写</text>
<rect x="379.8999999999999" y="747" width="44.6" height="27" rx="4" ry="4" fill="var(--bg)" stroke="var(--_inner-stroke)" stroke-width="0.5" />
<text x="402.19999999999993" y="760.5" text-anchor="middle" dy="0.35em" font-size="11" font-weight="400" fill="var(--_text-muted)">共享数据库</text>
<rect x="76.29999999999998" y="408" width="103.5" height="36" rx="0" ry="0" fill="#dea584" stroke="#b7410e" stroke-width="0.75" />
<rect x="61.99999999999997" y="564" width="132.10000000000002" height="36" rx="0" ry="0" fill="#dea584" stroke="#b7410e" stroke-width="0.75" />
<rect x="423.4375" y="96" width="139.25" height="36" rx="0" ry="0" fill="#3178c6" stroke="#235a97" stroke-width="0.75" />
<rect x="427.0125" y="252" width="132.10000000000002" height="36" rx="0" ry="0" fill="#3178c6" stroke="#235a97" stroke-width="0.75" />
<rect x="427.0125" y="408" width="132.10000000000002" height="36" rx="0" ry="0" fill="#3178c6" stroke="#235a97" stroke-width="0.75" />
<rect x="258.09999999999997" y="564" width="146.4" height="36" rx="0" ry="0" fill="#3178c6" stroke="#235a97" stroke-width="0.75" />
<rect x="503.275" y="564" width="153.55" height="36" rx="0" ry="0" fill="#3178c6" stroke="#235a97" stroke-width="0.75" />
<rect x="124.29999999999994" y="744" width="210.75000000000003" height="33" fill="#2d5016" stroke="none" />
<line x1="124.29999999999994" y1="744" x2="124.29999999999994" y2="777" stroke="#1a3009" stroke-width="0.75" />
<line x1="335.04999999999995" y1="744" x2="335.04999999999995" y2="777" stroke="#1a3009" stroke-width="0.75" />
<ellipse cx="229.67499999999995" cy="777" rx="105.37500000000001" ry="7" fill="#2d5016" stroke="#1a3009" stroke-width="0.75" />
<ellipse cx="229.67499999999995" cy="744" rx="105.37500000000001" ry="7" fill="#2d5016" stroke="#1a3009" stroke-width="0.75" />
<rect x="442.49999999999994" y="744" width="275.1" height="33" fill="#2d5016" stroke="none" />
<line x1="442.49999999999994" y1="744" x2="442.49999999999994" y2="777" stroke="#1a3009" stroke-width="0.75" />
<line x1="717.5999999999999" y1="744" x2="717.5999999999999" y2="777" stroke="#1a3009" stroke-width="0.75" />
<ellipse cx="580.05" cy="777" rx="137.55" ry="7" fill="#2d5016" stroke="#1a3009" stroke-width="0.75" />
<ellipse cx="580.05" cy="744" rx="137.55" ry="7" fill="#2d5016" stroke="#1a3009" stroke-width="0.75" />
<text x="128.04999999999998" y="426" text-anchor="middle" dy="0.35em" font-size="13" font-weight="500" fill="#000">&quot;Agent 循环&quot;</text>
<text x="128.04999999999998" y="582" text-anchor="middle" dy="0.35em" font-size="13" font-weight="500" fill="#000">&quot;Memory Trait&quot;</text>
<text x="493.0625" y="114" text-anchor="middle" dy="0.35em" font-size="13" font-weight="500" fill="#fff">&quot;23个 AI Agents&quot;</text>
<text x="493.0625" y="270" text-anchor="middle" dy="0.35em" font-size="13" font-weight="500" fill="#fff">&quot;MemoryBridge&quot;</text>
<text x="493.0625" y="426" text-anchor="middle" dy="0.35em" font-size="13" font-weight="500" fill="#fff">&quot;MemoryRouter&quot;</text>
<text x="331.29999999999995" y="582" text-anchor="middle" dy="0.35em" font-size="13" font-weight="500" fill="#fff">&quot;memory-zerobot&quot;</text>
<text x="580.05" y="582" text-anchor="middle" dy="0.35em" font-size="13" font-weight="500" fill="#fff">&quot;memory-markdown&quot;</text>
<text x="229.67499999999995" y="760.5" text-anchor="middle" dy="0.35em" font-size="13" font-weight="500" fill="#fff">&quot;brain.db\nSQLite + FTS5&quot;</text>
<text x="580.05" y="760.5" text-anchor="middle" dy="0.35em" font-size="13" font-weight="500" fill="#fff">&quot;./memory/\nMEMORY.md\ndaily/*.md&quot;</text>
</svg>