<svg xmlns="http://www.w3.org/2000/svg" viewBox="0 0 838.6925000000001 685" width="838.6925000000001" height="685" style="--bg:#1a1b26;--fg:#a9b1d6;--line:#3d59a1;--accent:#7aa2f7;--muted:#565f89;background:var(--bg)">
<style>
  @import url('https://fonts.googleapis.com/css2?family=Inter:wght@400;500;600;700&amp;display=swap');
  text { font-family: 'Inter', system-ui, sans-serif; }
  svg {
    /* Derived from --bg and --fg (overridable via --line, --accent, etc.) */
    --_text:          var(--fg);
    --_text-sec:      var(--muted, color-mix(in srgb, var(--fg) 60%, var(--bg)));
    --_text-muted:    var(--muted, color-mix(in srgb, var(--fg) 40%, var(--bg)));
    --_text-faint:    color-mix(in srgb, var(--fg) 25%, var(--bg));
    --_line:          var(--line, color-mix(in srgb, var(--fg) 30%, var(--bg)));
    --_arrow:         var(--accent, color-mix(in srgb, var(--fg) 50%, var(--bg)));
    --_node-fill:     var(--surface, color-mix(in srgb, var(--fg) 3%, var(--bg)));
    --_node-stroke:   var(--border, color-mix(in srgb, var(--fg) 20%, var(--bg)));
    --_group-fill:    var(--bg);
    --_group-hdr:     color-mix(in srgb, var(--fg) 5%, var(--bg));
    --_inner-stroke:  color-mix(in srgb, var(--fg) 12%, var(--bg));
    --_key-badge:     color-mix(in srgb, var(--fg) 10%, var(--bg));
  }
</style>
<defs>
  <marker id="arrowhead" markerWidth="8" markerHeight="4.8" refX="8" refY="2.4" orient="auto">
    <polygon points="0 0, 8 2.4, 0 4.8" fill="var(--_arrow)" />
  </marker>
  <marker id="arrowhead-start" markerWidth="8" markerHeight="4.8" refX="0" refY="2.4" orient="auto-start-reverse">
    <polygon points="8 0, 0 2.4, 8 4.8" fill="var(--_arrow)" />
  </marker>
</defs>
<rect x="40" y="40" width="502.405" height="112" rx="0" ry="0" fill="var(--_group-fill)" stroke="var(--_node-stroke)" stroke-width="1" />
<rect x="40" y="40" width="502.405" height="28" rx="0" ry="0" fill="var(--_group-hdr)" stroke="var(--_node-stroke)" stroke-width="1" />
<text x="52" y="54" dy="0.35em" font-size="12" font-weight="600" fill="var(--_text-sec)">&quot;Composite 模式 (双写)&quot;</text>
<rect x="63.23750000000001" y="213" width="218.68" height="123" rx="0" ry="0" fill="var(--_group-fill)" stroke="var(--_node-stroke)" stroke-width="1" />
<rect x="63.23750000000001" y="213" width="218.68" height="28" rx="0" ry="0" fill="var(--_group-hdr)" stroke="var(--_node-stroke)" stroke-width="1" />
<text x="75.23750000000001" y="227" dy="0.35em" font-size="12" font-weight="600" fill="var(--_text-sec)">&quot;主后端 (Primary)&quot;</text>
<rect x="301.9175" y="213" width="231.54999999999995" height="123" rx="0" ry="0" fill="var(--_group-fill)" stroke="var(--_node-stroke)" stroke-width="1" />
<rect x="301.9175" y="213" width="231.54999999999995" height="28" rx="0" ry="0" fill="var(--_group-hdr)" stroke="var(--_node-stroke)" stroke-width="1" />
<text x="313.9175" y="227" dy="0.35em" font-size="12" font-weight="600" fill="var(--_text-sec)">&quot;副后端 (Secondary)&quot;</text>
<rect x="69.73000000000002" y="380" width="728.9625000000001" height="112" rx="0" ry="0" fill="var(--_group-fill)" stroke="var(--_node-stroke)" stroke-width="1" />
<rect x="69.73000000000002" y="380" width="728.9625000000001" height="28" rx="0" ry="0" fill="var(--_group-hdr)" stroke="var(--_node-stroke)" stroke-width="1" />
<text x="81.73000000000002" y="394" dy="0.35em" font-size="12" font-weight="600" fill="var(--_text-sec)">&quot;合并策略&quot;</text>
<polyline points="209.56750000000002,132 209.56750000000002,152 116.5375,152 116.5375,292.5 101.66750000000002,292.5" fill="none" stroke="var(--_line)" stroke-width="1.5" marker-end="url(#arrowhead)" />
<polyline points="209.56750000000002,132 209.56750000000002,152 358.7925,152 358.7925,292.5 399.39250000000004,292.5" fill="none" stroke="var(--_line)" stroke-width="0.75" marker-end="url(#arrowhead)" />
<polyline points="394.26750000000004,132 394.26750000000004,152 238.6175,152 238.6175,292.5 190.8675,292.5" fill="none" stroke="var(--_line)" stroke-width="0.75" marker-end="url(#arrowhead)" />
<polyline points="394.26750000000004,132 394.26750000000004,152 486.5925,152 486.5925,292.5 502.89250000000004,292.5" fill="none" stroke="var(--_line)" stroke-width="0.75" marker-end="url(#arrowhead)" />
<polyline points="146.2675,316 146.2675,454 210.84250000000003,454" fill="none" stroke="var(--_line)" stroke-width="0.75" marker-end="url(#arrowhead)" />
<polyline points="451.14250000000004,316 451.14250000000004,454 392.9925,454" fill="none" stroke="var(--_line)" stroke-width="0.75" marker-end="url(#arrowhead)" />
<polyline points="703.4925000000001,472 703.4925000000001,609" fill="none" stroke="var(--_line)" stroke-width="0.75" marker-end="url(#arrowhead)" />
<rect x="88.5175" y="187" width="56.04" height="27" rx="4" ry="4" fill="var(--bg)" stroke="var(--_inner-stroke)" stroke-width="0.5" />
<text x="116.5375" y="200.5" text-anchor="middle" dy="0.35em" font-size="11" font-weight="400" fill="var(--_text-muted)">1. 必须成功</text>
<rect x="319.33250000000004" y="187" width="78.92" height="27" rx="4" ry="4" fill="var(--bg)" stroke="var(--_inner-stroke)" stroke-width="0.5" />
<text x="358.7925" y="200.5" text-anchor="middle" dy="0.35em" font-size="11" font-weight="400" fill="var(--_text-muted)">2. 可选，失败不阻塞</text>
<rect x="219.1775" y="187" width="38.88" height="27" rx="4" ry="4" fill="var(--bg)" stroke="var(--_inner-stroke)" stroke-width="0.5" />
<text x="238.6175" y="200.5" text-anchor="middle" dy="0.35em" font-size="11" font-weight="400" fill="var(--_text-muted)">并行查询</text>
<rect x="467.1525" y="187" width="38.88" height="27" rx="4" ry="4" fill="var(--bg)" stroke="var(--_inner-stroke)" stroke-width="0.5" />
<text x="486.5925" y="200.5" text-anchor="middle" dy="0.35em" font-size="11" font-weight="400" fill="var(--_text-muted)">并行查询</text>
<rect x="684.0525" y="527" width="38.88" height="27" rx="4" ry="4" fill="var(--bg)" stroke="var(--_inner-stroke)" stroke-width="0.5" />
<text x="703.4925000000001" y="540.5" text-anchor="middle" dy="0.35em" font-size="11" font-weight="400" fill="var(--_text-muted)">合并结果</text>
<rect x="666.0425" y="609" width="74.9" height="36" rx="0" ry="0" fill="var(--_node-fill)" stroke="var(--_node-stroke)" stroke-width="0.75" />
<rect x="118.49250000000002" y="96" width="182.15" height="36" rx="0" ry="0" fill="#7b1fa2" stroke="#4a148c" stroke-width="0.75" />
<rect x="324.64250000000004" y="96" width="139.25" height="36" rx="0" ry="0" fill="#7b1fa2" stroke="#4a148c" stroke-width="0.75" />
<rect x="101.66750000000002" y="276" width="89.2" height="33" fill="#1976d2" stroke="none" />
<line x1="101.66750000000002" y1="276" x2="101.66750000000002" y2="309" stroke="#0d47a1" stroke-width="0.75" />
<line x1="190.8675" y1="276" x2="190.8675" y2="309" stroke="#0d47a1" stroke-width="0.75" />
<ellipse cx="146.2675" cy="309" rx="44.6" ry="7" fill="#1976d2" stroke="#0d47a1" stroke-width="0.75" />
<ellipse cx="146.2675" cy="276" rx="44.6" ry="7" fill="#1976d2" stroke="#0d47a1" stroke-width="0.75" />
<rect x="399.39250000000004" y="276" width="103.5" height="33" fill="#388e3c" stroke="none" />
<line x1="399.39250000000004" y1="276" x2="399.39250000000004" y2="309" stroke="#1b5e20" stroke-width="0.75" />
<line x1="502.89250000000004" y1="276" x2="502.89250000000004" y2="309" stroke="#1b5e20" stroke-width="0.75" />
<ellipse cx="451.14250000000004" cy="309" rx="51.75" ry="7" fill="#388e3c" stroke="#1b5e20" stroke-width="0.75" />
<ellipse cx="451.14250000000004" cy="276" rx="51.75" ry="7" fill="#388e3c" stroke="#1b5e20" stroke-width="0.75" />
<rect x="210.84250000000003" y="436" width="182.15" height="36" rx="0" ry="0" fill="#f57c00" stroke="#e65100" stroke-width="0.75" />
<rect x="416.99250000000006" y="436" width="189.3" height="36" rx="0" ry="0" fill="#f57c00" stroke="#e65100" stroke-width="0.75" />
<rect x="630.2925" y="436" width="146.4" height="36" rx="0" ry="0" fill="#f57c00" stroke="#e65100" stroke-width="0.75" />
<text x="703.4925000000001" y="627" text-anchor="middle" dy="0.35em" font-size="13" font-weight="500" fill="var(--_text)">&quot;返回结果&quot;</text>
<text x="209.56750000000002" y="114" text-anchor="middle" dy="0.35em" font-size="13" font-weight="500" fill="#fff">&quot;store(key, content)&quot;</text>
<text x="394.26750000000004" y="114" text-anchor="middle" dy="0.35em" font-size="13" font-weight="500" fill="#fff">&quot;recall(query)&quot;</text>
<text x="146.2675" y="292.5" text-anchor="middle" dy="0.35em" font-size="13" font-weight="500" fill="#fff">&quot;SQLite&quot;</text>
<text x="451.14250000000004" y="292.5" text-anchor="middle" dy="0.35em" font-size="13" font-weight="500" fill="#fff">&quot;Markdown&quot;</text>
<text x="301.9175" y="454" text-anchor="middle" dy="0.35em" font-size="13" font-weight="500" fill="#000">&quot;primary-wins\n主后端优先&quot;</text>
<text x="511.64250000000004" y="454" text-anchor="middle" dy="0.35em" font-size="13" font-weight="500" fill="#000">&quot;newest-wins\n最新时间戳优先&quot;</text>
<text x="703.4925000000001" y="454" text-anchor="middle" dy="0.35em" font-size="13" font-weight="500" fill="#000">&quot;merge\n去重按分数排序&quot;</text>
</svg>